<svg xmlns="http://www.w3.org/2000/svg" viewBox="0 0 141.73 141.73"><title>cycle-50</title><g id="_----_Transport_Mode" data-name="---- Transport Mode"><path d="M14.8891,1.3237H126.8764A13.9986,13.9986,0,0,1,140.875,15.3223V127.3094a13.9988,13.9988,0,0,1-13.9988,13.9988H14.8893A13.9988,13.9988,0,0,1,.8905,127.3094V15.3223A13.9986,13.9986,0,0,1,14.8891,1.3237Z" fill="#001f3b"/><path d="M105.8688,85.3159a20.9073,20.9073,0,0,0-10.031,2.5454l-8.9-12.3767,3.2205-8.5408H93.63a2.6247,2.6247,0,1,0,0-5.2494H81.3825a2.6247,2.6247,0,1,0,0,5.2494H84.549l-2.64,7H50.8463l-.014-.01,2.6167-6.9788,6.8635.0424a2.6248,2.6248,0,1,0,.0328-5.2494l-8.6942-.0535h-.0169a2.625,2.625,0,0,0-2.4576,1.7029L40.7444,85.884a20.9818,20.9818,0,1,0,4.9162,1.8408l3.0411-8.11L64.5763,101.692A7.8653,7.8653,0,1,0,78.339,108.94h6.7058a20.9953,20.9953,0,1,0,20.824-23.624ZM51.6358,106.31A15.7551,15.7551,0,1,1,38.8815,90.8527L33.43,105.39a2.6247,2.6247,0,1,0,4.9152,1.8432L43.7947,92.7A15.752,15.752,0,0,1,51.6358,106.31Zm49.1171-2.6211-10.4062,0a15.7229,15.7229,0,0,1,4.3346-8.4444ZM91.58,90.9323a20.9331,20.9331,0,0,0-6.536,12.7577l-6.7251,0a7.8647,7.8647,0,0,0-1.1974-2.1755l7.5922-20.1319ZM72.59,98.6538a7.6806,7.6806,0,0,0-3.6719.0839L54.864,79.1927H79.929ZM70.9184,108.97a2.6247,2.6247,0,1,1,2.62-2.6283A2.6319,2.6319,0,0,1,70.9184,108.97Zm34.95,13.0914a15.7687,15.7687,0,0,1-15.521-13.1222l15.523-.001h.0043a2.5918,2.5918,0,0,0,.475-.0482c.0482-.0086.0945-.0212.1418-.0328a2.5847,2.5847,0,0,0,.313-.0974c.0516-.0193.1027-.0391.1524-.0617a2.5366,2.5366,0,0,0,.2816-.1534c.0434-.026.0887-.0492.13-.0786.012-.0077.0246-.013.0362-.0217.05-.0357.0887-.081.1355-.12a2.5824,2.5824,0,0,0,.2214-.1958,2.4437,2.4437,0,0,0,.161-.1953c.0531-.067.1071-.1317.1534-.2035s.0839-.15.1235-.2267c.0381-.0747.0781-.1481.109-.2262a2.3858,2.3858,0,0,0,.0771-.2488,2.4591,2.4591,0,0,0,.0637-.24,2.6279,2.6279,0,0,0,.03-.2961c.0039-.06.0178-.1177.0178-.1785,0-.0135-.0034-.0241-.0034-.0371a2.7633,2.7633,0,0,0-.0319-.3149c-.01-.0676-.0116-.1365-.026-.2026-.0178-.0834-.05-.1649-.0767-.2474s-.0478-.1664-.0815-.2445c-.0275-.0627-.0666-.1215-.0994-.1823a2.5043,2.5043,0,0,0-.1562-.2711c-.0072-.01-.0111-.0222-.0188-.0328L98.94,92.1761a15.747,15.747,0,1,1,6.9286,29.8851Z" fill="#fdfbf8"/></g></svg>