<svg xmlns="http://www.w3.org/2000/svg" viewBox="0 0 141.73 141.73"><title>rail-50</title><g id="_----_Transport_Mode" data-name="---- Transport Mode"><path d="M14.9776,1.1154H126.7011a13.9656,13.9656,0,0,1,13.9656,13.9656V126.8042A13.9658,13.9658,0,0,1,126.7009,140.77H14.9776A13.9656,13.9656,0,0,1,1.012,126.8044V15.0809A13.9656,13.9656,0,0,1,14.9776,1.1154Z" fill="#36a848"/><path d="M107.7316,77.9926l-3.9585-45.52c-.8314-9.5654-8.5823-17.3914-17.2232-17.3914H55.1278c-8.6409,0-16.3911,7.826-17.2228,17.3914l-3.9582,45.52A15.7635,15.7635,0,0,0,49.8912,95.3832H91.7875A15.764,15.764,0,0,0,107.7316,77.9926ZM48.1467,81.4157a5.237,5.237,0,1,1,5.2365-5.2279A5.2377,5.2377,0,0,1,48.1467,81.4157ZM67.3483,46.5026a3.5013,3.5013,0,0,1-3.4915,3.4915l-17.4571,0a3.1512,3.1512,0,0,1-3.1877-3.4781l.6127-6.996.0007-.0019.6158-7.02c.504-5.7386,5.0785-10.4341,10.1659-10.4341,2.0691,0,3.9793-.0007,5.5252-.0007l3.7249,0a3.502,3.502,0,0,1,3.4915,3.4913Zm6.9811,0V25.5547a3.502,3.502,0,0,1,3.4916-3.4913l3.7253,0c1.5454,0,3.4549.0007,5.5243.0007,5.0874,0,9.6624,4.6955,10.1661,10.4331L97.853,39.52l0,.0009.1343,1.5367.1717,1.9543,0,0,.3065,3.5054a3.1509,3.1509,0,0,1-3.1874,3.4781l-17.4571,0A3.5014,3.5014,0,0,1,74.3294,46.5026ZM93.532,81.4157A5.237,5.237,0,1,1,98.77,76.1879,5.2338,5.2338,0,0,1,93.532,81.4157Z" fill="#fdfbf8"/><path d="M94.6973,105.8577l-2.91-6.9844H49.8912l-2.91,6.9844-7.9222,19.0116a1.2988,1.2988,0,0,0,1.2894,1.9336h6.284a2.5661,2.5661,0,0,0,2.4393-2.0664l.8068-4.84H91.8l.8068,4.84a2.5665,2.5665,0,0,0,2.4393,2.0664h6.2844a1.2981,1.2981,0,0,0,1.2884-1.9336Zm-43.6547,7.0557,1.1763-7.0557,0-.0019H89.46l0,.0019,1.1759,7.0557Z" fill="#fdfbf8"/></g></svg>