<svg xmlns="http://www.w3.org/2000/svg" viewBox="0 0 141.73 141.73"><title>tram-50</title><g id="_----_Transport_Mode" data-name="---- Transport Mode"><path d="M14.9533,1.157H126.6984a13.9683,13.9683,0,0,1,13.9683,13.9683V126.87a13.9683,13.9683,0,0,1-13.9683,13.9683H14.9535A13.9685,13.9685,0,0,1,.9851,126.87V15.1253A13.9683,13.9683,0,0,1,14.9533,1.157Z" fill="#dd0068"/><path d="M105.8921,88.5126l-3.37-38.5194A15.5691,15.5691,0,0,0,87.3364,36.0779H77.8059l5.4652-5.4989a2.9138,2.9138,0,0,0-.0058-4.099L72.91,16.125a2.9024,2.9024,0,0,0-4.0923-.0007L58.4182,26.5234a2.9021,2.9021,0,0,0,0,4.0925l5.4611,5.4621H54.3531A15.57,15.57,0,0,0,39.1676,49.9932l-3.37,38.5194A12.6057,12.6057,0,0,0,48.5484,102.428l22.2784-.0009h.0356l22.2793.0009A12.6054,12.6054,0,0,0,105.8921,88.5126ZM63.78,28.57l7.0835-7.0837,7.052,7.0512-7.0623,7.1057ZM48.1289,91.951a5.238,5.238,0,1,1,5.2376-5.2284A5.2387,5.2387,0,0,1,48.1289,91.951Zm22.7028-17.46H47.2443a3.1513,3.1513,0,0,1-3.1876-3.4787L45.8931,50.02a7.7845,7.7845,0,0,1,7.5926-6.9574l17.34-.001h.038l17.3406.001A7.7845,7.7845,0,0,1,95.7971,50.02l1.8363,20.9916a3.1523,3.1523,0,0,1-3.1886,3.4787Zm22.73,17.46A5.238,5.238,0,1,1,98.8,86.7225,5.2347,5.2347,0,0,1,93.5614,91.951Z" fill="#fdfbf8"/><path d="M53.3664,105.9187H49.8737L41.95,124.9369a1.2982,1.2982,0,0,0,1.2892,1.9335h4.5393a2.5671,2.5671,0,0,0,2.44-2.0663Z" fill="#fdfbf8"/><path d="M91.4342,124.8041a2.5671,2.5671,0,0,0,2.44,2.0663h4.54a1.2982,1.2982,0,0,0,1.2887-1.9335L91.779,105.9187H88.2863Z" fill="#fdfbf8"/></g></svg>