<svg xmlns="http://www.w3.org/2000/svg" viewBox="0 0 141.73 141.73"><title>bus-50</title><g id="_----_Transport_Mode" data-name="---- Transport Mode"><path d="M15,1.282H126.6665A13.9585,13.9585,0,0,1,140.625,15.2405V126.907a13.9587,13.9587,0,0,1-13.9587,13.9587H15A13.9585,13.9585,0,0,1,1.0413,126.9072V15.2405A13.9585,13.9585,0,0,1,15,1.282Z" fill="#dd6d09"/><path d="M98.75,15.2407l-20.9057,0H63.8859l-20.9688,0a7,7,0,0,0-6.9795,6.9788l0,87.241a7,7,0,0,0,6.9788,6.979h.0012v8.3745a2.1,2.1,0,0,0,2.0935,2.0932h6.2815a2.1,2.1,0,0,0,2.0937-2.0932v-8.3745l10.4692-.0009H88.2813v8.3755a2.1,2.1,0,0,0,2.0935,2.0932h6.2815A2.0993,2.0993,0,0,0,98.75,124.814v-8.3755a7,7,0,0,0,6.9785-6.979l.0009-87.24A7,7,0,0,0,98.75,15.2407Zm-50.598,90.73a5.2346,5.2346,0,1,1,5.2339-5.2252A5.2354,5.2354,0,0,1,48.1521,105.97Zm45.3642,0A5.2346,5.2346,0,1,1,98.75,100.745,5.2354,5.2354,0,0,1,93.5162,105.97ZM98.75,85.0318a3.5,3.5,0,0,1-3.49,3.49H46.407a3.5,3.5,0,0,1-3.49-3.49V67.5841a3.5,3.5,0,0,1,3.49-3.4892H95.26a3.5,3.5,0,0,1,3.49,3.4892Zm-41.8749-30.01V52.23a2.1,2.1,0,0,1,2.0937-2.0937H82.6984A2.1,2.1,0,0,1,84.7919,52.23v2.792a2.1,2.1,0,0,1-2.0935,2.0938H58.9689A2.1,2.1,0,0,1,56.8752,55.0221ZM98.75,39.6677a3.5,3.5,0,0,1-3.49,3.4892H46.407a3.5,3.5,0,0,1-3.49-3.4892V25.7089a3.5,3.5,0,0,1,3.49-3.4895H95.26a3.5,3.5,0,0,1,3.49,3.4895Z" fill="#fdfbf8"/></g></svg>