<svg id="_----_Destinations" data-name="---- Destinations" xmlns="http://www.w3.org/2000/svg" width="140.3238" height="140.3238" viewBox="0 0 140.3238 140.3238"><title>hospital-50</title><rect width="140.3238" height="140.3238" rx="14.0325" ry="14.0325" fill="#009ee2"/><path d="M47.7548,121.27c0,5.1606-4.0661,6.7245-9.0711,6.7245-5.1611,0-9.2271-1.5639-9.2271-6.7245V22.4269c0-5.005,4.066-6.725,9.2271-6.725,5.005,0,9.0711,1.72,9.0711,6.725V61.995H92.64V22.4269c0-5.005,4.0668-6.725,9.2279-6.725,5.0042,0,9.071,1.72,9.071,6.725V121.27c0,5.1606-4.0668,6.7245-9.071,6.7245-5.1611,0-9.2279-1.5639-9.2279-6.7245V78.886H47.7548Z" transform="translate(-0.0757 -1.6762)" fill="#fdfbf8"/></svg>