<svg id="_----_Destinations" data-name="---- Destinations" xmlns="http://www.w3.org/2000/svg" width="140.0437" height="140.0435" viewBox="0 0 140.0437 140.0435"><title>shopping-50</title><path d="M14.004,0H126.0393a14.0045,14.0045,0,0,1,14.0045,14.0045V126.0385a14.005,14.005,0,0,1-14.005,14.005H14.0045A14.0045,14.0045,0,0,1,0,126.039V14.004A14.004,14.004,0,0,1,14.004,0Z" fill="#b14f03"/><path d="M49.4208,22.9658A17.5238,17.5238,0,0,0,33.3844,33.4671H65.4525A17.5186,17.5186,0,0,0,49.4208,22.9658Z" transform="translate(-0.3975 -1.9565)" fill="none"/><path d="M45.9176,64.9758h2.5431a20.9835,20.9835,0,0,1-.4589-4.375,20.7647,20.7647,0,0,1,6.2865-14.9289l.2393-.2349.0309-.0256a21.4228,21.4228,0,0,1,29.601.2558c.09.0877.179.1775.2683.2677V33.4671H72.909a24.51,24.51,0,0,0-46.9815,0h-11.52V106.99a7.022,7.022,0,0,0,7.0021,7.0005H35.4146V75.479A10.5151,10.5151,0,0,1,45.9176,64.9758ZM33.3844,33.4671a17.4916,17.4916,0,0,1,32.0681,0Z" transform="translate(-0.3975 -1.9565)" fill="#fdfbf8"/><path d="M122.9411,71.9773H107.929a16.0208,16.0208,0,0,0,1.7348-1.4546A13.8511,13.8511,0,0,0,109.665,50.67l-.0017-.0024a14.4134,14.4134,0,0,0-20.0611-.001,25.4787,25.4787,0,0,0-5.172,8.3717,25.4443,25.4443,0,0,0-5.1713-8.37,14.418,14.418,0,0,0-20.0644-.0009l-.0024.0024a13.8546,13.8546,0,0,0,.0034,19.8538,15.9408,15.9408,0,0,0,1.733,1.4532H45.9176a3.5019,3.5019,0,0,0-3.5012,3.5017v49.0163a3.5011,3.5011,0,0,0,3.5012,3.5012h77.0235a3.501,3.501,0,0,0,3.501-3.5012V75.479A3.5017,3.5017,0,0,0,122.9411,71.9773ZM94.5011,55.67a7.3726,7.3726,0,0,1,10.2628.0009,6.8488,6.8488,0,0,1,.0016,9.848c-2.762,2.7018-10.1534,5.36-16.55,6.192C89.078,65.493,91.77,58.342,94.5011,55.67ZM119.44,78.98V96.4459H87.931V78.98ZM64.0934,55.671a7.3807,7.3807,0,0,1,10.2671.001c2.7319,2.6728,5.4221,9.8229,6.2814,16.039-6.3955-.8308-13.7868-3.49-16.5475-6.19a6.8544,6.8544,0,0,1-.001-9.85ZM80.9285,78.98V96.4459h-31.51V78.98Zm-31.51,42.0133v-17.46h31.51v17.46Zm38.5121,0v-17.46H119.44v17.46Z" transform="translate(-0.3975 -1.9565)" fill="#fdfbf8"/></svg>