<?xml version="1.0" encoding="utf-8"?>
<!-- Generator: Adobe Illustrator 22.0.1, SVG Export Plug-In . SVG Version: 6.00 Build 0)  -->
<svg version="1.1" xmlns="http://www.w3.org/2000/svg" xmlns:xlink="http://www.w3.org/1999/xlink" x="0px" y="0px"
	 width="141.73px" height="141.73px" viewBox="0 0 141.73 141.73" enable-background="new 0 0 141.73 141.73" xml:space="preserve">
<g id="Layer_1" display="none">
	<title>bus-50</title>
	<g id="_----_Transport_Mode" display="inline">
		<path fill="#DD6D09" d="M15,1.282h111.6665c7.7091,0,13.9585,6.2494,13.9585,13.9585c0,0,0,0,0,0V126.907
			c0,7.7092-6.2495,13.9587-13.9587,13.9587H15c-7.7091,0.0001-13.9586-6.2492-13.9587-13.9583c0-0.0001,0-0.0001,0-0.0002V15.2405
			c0-7.7091,6.2494-13.9585,13.9585-13.9585C14.9999,1.282,14.9999,1.282,15,1.282z"/>
		<path fill="#FDFBF8" d="M98.75,15.2407H77.8443H63.8859H42.9171c-3.8497,0.0113-6.9679,3.1291-6.9795,6.9788v87.241
			c0.0115,3.8495,3.1293,6.9674,6.9788,6.979h0.0012v8.3745c0.0037,1.1546,0.9389,2.0896,2.0935,2.0932h6.2815
			c1.1547-0.0035,2.09-0.9385,2.0937-2.0932v-8.3745l10.4692-0.0009h24.4258v8.3755c0.0037,1.1546,0.9389,2.0896,2.0935,2.0932
			h6.2815c1.1549-0.0031,2.0904-0.9384,2.0937-2.0933v-8.3755c3.8494-0.0118,6.967-3.1296,6.9785-6.979l0.0009-87.24
			C105.7178,18.3698,102.5997,15.252,98.75,15.2407z M48.152,105.9707c-2.891,0.0004-5.2349-2.3429-5.2353-5.2339
			s2.3429-5.2349,5.2339-5.2353c2.891-0.0004,5.2349,2.3429,5.2353,5.2339c0,0.0034,0,0.0067,0,0.0101
			c-0.006,2.8866-2.3472,5.2236-5.2338,5.2245L48.152,105.9707z M93.5162,105.9707c-2.891,0.0004-5.235-2.3428-5.2354-5.2338
			s2.3428-5.235,5.2338-5.2354s5.235,2.3428,5.2354,5.2338c0,0.0032,0,0.0065,0,0.0097c-0.0057,2.8867-2.3471,5.2241-5.2338,5.225
			L93.5162,105.9707z M98.75,85.0318c-0.0055,1.9252-1.5648,3.4845-3.49,3.49H46.407c-1.9252-0.0055-3.4845-1.5648-3.49-3.49
			V67.5841c0.0059-1.9249,1.5651-3.4837,3.49-3.4892H95.26c1.9249,0.0055,3.4841,1.5643,3.49,3.4892V85.0318z M56.8751,55.0218
			V52.23c0.0035-1.1549,0.9388-2.0902,2.0937-2.0937h23.7296c1.1548,0.0036,2.09,0.9389,2.0935,2.0937v2.792
			c-0.0034,1.1548-0.9387,2.0902-2.0935,2.0938H58.9689c-1.1549-0.0035-2.0902-0.9388-2.0937-2.0937L56.8751,55.0218z
			 M98.75,39.6677c-0.0059,1.9249-1.5651,3.4837-3.49,3.4892H46.407c-1.9249-0.0055-3.4841-1.5643-3.49-3.4892V25.7089
			c0.0058-1.925,1.565-3.484,3.49-3.4895H95.26c1.925,0.0055,3.4842,1.5645,3.49,3.4895V39.6677z"/>
	</g>
</g>
<g id="_x2D_---_Destinations">
	<g>
		<path fill="#B14F03" d="M140.8101,127.1715c0,7.6742-6.2788,13.9535-13.953,13.9535H15.2338
			c-7.6743,0-13.953-6.2793-13.953-13.9535V15.5491c0-7.6737,6.2788-13.953,13.953-13.953h111.6233
			c7.6742,0,13.953,6.2793,13.953,13.953V127.1715z"/>
		<g>
			<path fill="#FDFBF8" d="M99.9903,89.5199l-23.985,18.8782c-2.6385,2.0771-7.2676,2.0771-9.9066,0L42.1131,89.5199
				c-1.5137-1.1912-3.7061-0.9302-4.8983,0.5835c-1.1911,1.5137-0.9301,3.7071,0.5836,4.8983l23.9855,18.8787
				c2.5986,2.0454,5.9327,3.0678,9.2677,3.0678c3.335,0,6.6706-1.0229,9.2687-3.0678l23.985-18.8787
				c1.5137-1.1911,1.7752-3.3846,0.5836-4.8983C103.6979,88.5897,101.5045,88.3283,99.9903,89.5199z"/>
			<path fill="#FDFBF8" d="M121.6108,113.442V95.7963c0-4.3147-2.3794-10.0945-5.4174-13.1584l-8.2833-8.3559l13.5017-10.6228
				c3.0158-2.3727,3.0134-6.2519-0.0048-8.6202L76.5729,19.8581c-3.0187-2.3693-7.9564-2.3674-10.9723,0.0043L20.757,55.1177
				c-3.0168,2.3713-3.0178,6.2538-0.0029,8.627l44.7822,35.2482c3.0154,2.3732,7.9497,2.3741,10.9656,0.0014l28.6492-22.541
				l8.5655,8.6404c2.3885,2.4092,4.4065,7.3108,4.4065,10.7026v17.6563c-2.9976,0.7825-5.2126,3.4994-5.2126,6.7421
				c0,3.8533,3.1235,6.9772,6.9767,6.9772s6.9767-3.124,6.9767-6.9772C126.8638,116.9376,124.6286,114.2101,121.6108,113.442z"/>
		</g>
	</g>
</g>
</svg>
